<?xml version="1.0" encoding="UTF-8"?><svg id="Layer_1" xmlns="http://www.w3.org/2000/svg" xmlns:xlink="http://www.w3.org/1999/xlink" viewBox="0 0 490.81 431.23"><defs><style>.cls-1{fill:url(#linear-gradient-2);}.cls-2{fill:#0de79b;}.cls-3{fill:#4e3dbf;}.cls-4{fill:#28065f;}.cls-5{fill:#0fe4de;}.cls-6{fill:#0253a0;}.cls-7{fill:#4371ce;}.cls-8{fill:url(#linear-gradient);}.cls-9{fill:#2b80c6;}</style><linearGradient id="linear-gradient" x1="155" y1="258.57" x2="302.6" y2="59.2" gradientUnits="userSpaceOnUse"><stop offset="0" stop-color="#6649df"/><stop offset=".12" stop-color="#5f52d9"/><stop offset=".33" stop-color="#4e6ccc"/><stop offset=".59" stop-color="#3395b5"/><stop offset=".9" stop-color="#0dce96"/><stop offset="1" stop-color="#00e38c"/></linearGradient><linearGradient id="linear-gradient-2" x1="173.75" y1="122.4" x2="349.33" y2="271.4" gradientUnits="userSpaceOnUse"><stop offset="0" stop-color="#6649df"/><stop offset=".13" stop-color="#5f52de"/><stop offset=".33" stop-color="#4e6cdd"/><stop offset=".6" stop-color="#3295da"/><stop offset=".91" stop-color="#0bced7"/><stop offset="1" stop-color="#00e0d7"/></linearGradient></defs><g><path class="cls-8" d="M316.66,21.59c-7.91-9.87-21.05-14.9-34.19-11.84-7.55,1.76-13.92,5.91-18.49,11.47-4.38,4.86-7.31,11.36-7.82,19.56-4.24,34.68-15.8,68.61-33.03,99.03-18.21,31.93-44.43,59.47-76.6,77.48-5.53,3.02-9.65,6.68-12.55,10.7-6.4,7.86-9.23,18.49-6.76,29.13,4.25,18.26,22.49,29.61,40.75,25.36,3.16-.74,6.11-1.9,8.81-3.4,3.08-1.39,6.17-3.32,9.22-5.84,80.11-47.67,129.14-138.35,138.26-229.75,.16-9.2-2.81-16.51-7.6-21.89Z"/><path class="cls-1" d="M111.35,93.48c-9.87,7.91-14.9,21.05-11.84,34.19,1.76,7.55,5.91,13.92,11.47,18.49,4.86,4.38,11.36,7.31,19.56,7.82,34.68,4.24,68.61,15.8,99.03,33.03,31.93,18.21,59.47,44.43,77.48,76.6,3.02,5.53,6.68,9.65,10.7,12.55,7.86,6.4,18.49,9.23,29.13,6.76,18.26-4.25,29.61-22.49,25.36-40.75-.74-3.16-1.9-6.11-3.4-8.81-1.39-3.08-3.32-6.17-5.84-9.22-47.67-80.11-138.35-129.14-229.75-138.26-9.2-.16-16.51,2.81-21.89,7.6Z"/><circle class="cls-3" cx="131.8" cy="119.81" r="33.9"/><circle class="cls-3" cx="160.42" cy="247.5" r="33.9"/><circle class="cls-2" cx="290.19" cy="42.98" r="34.18"/><circle class="cls-5" cx="339.22" cy="249.7" r="33.9"/><circle class="cls-9" cx="250.18" cy="159.57" r="33.9"/><g><path class="cls-7" d="M236.06,113.7c-3.56,8.2-7.51,16.21-11.84,24,4.55-5.4,10.82-9.43,18.22-11.15,18.24-4.24,36.46,7.1,40.7,25.34,4.24,18.24-7.1,36.46-25.34,40.7-18.24,4.24-36.46-7.1-40.7-25.34-1.59-6.82-.99-13.63,1.32-19.72-5.5,8.78-11.61,17.17-18.3,25.07,10.08,4.22,19.9,9.04,29.38,14.4,10.53,6.01,20.57,12.9,29.96,20.58,14.04-18.05,25.99-37.8,35.71-58.62-18.23-13.91-38.15-25.71-59.12-35.27Z"/><path class="cls-6" d="M224.23,137.7c-2.47,2.93-4.43,6.25-5.79,9.84,1.6-2.55,3.15-5.13,4.64-7.74,.39-.69,.76-1.4,1.15-2.09Z"/></g></g><g><path class="cls-4" d="M55.17,420.91l-11.08-17.62-10.27,17.62H10.01l22.29-33.14-21.12-31.04h23.57l10.03,16.22,9.22-16.22h23.8l-21.24,31.62,22.17,32.55h-23.57Z"/><path class="cls-4" d="M108.84,337.72c0,6.65-5.02,11.43-12.02,11.43s-12.02-4.78-12.02-11.43,5.25-11.32,12.02-11.32,12.02,4.78,12.02,11.32Zm-21.94,19.02h19.84v64.18h-19.84v-64.18Z"/><path class="cls-4" d="M219.45,380.78v40.14h-19.84v-35.71c0-7-2.1-11.08-9.57-11.08s-11.2,3.85-11.2,12.72v34.07h-19.84v-35.71c0-7-2.1-11.08-9.57-11.08s-11.2,3.85-11.2,12.72v34.07h-19.84v-64.18h19.84v7.23c4.67-5.72,10.62-8.75,18.2-8.75,8.75,0,15.52,4.08,19.25,11.2,4.9-7.12,12.37-11.2,21.24-11.2,13.77,0,22.52,9.92,22.52,25.55Z"/><path class="cls-4" d="M273.58,420.91l-22.64-26.37v26.37h-19.84v-89.85h19.84v51.22l21.12-25.55h25.09l-27.42,30.57,28.94,33.6h-25.09Z"/><path class="cls-4" d="M364.48,356.74l-.12,64.18h-19.84v-6.88c-4.08,5.02-9.92,8.4-18.09,8.4-16.34,0-28.94-13.77-28.94-33.61s12.83-33.6,28.82-33.6c8.17,0,14.23,3.5,18.32,8.75v-7.23h19.84Zm-19.84,32.09c0-8.87-5.83-14.7-13.54-14.7s-13.54,5.83-13.54,14.7,5.95,14.7,13.54,14.7,13.54-5.72,13.54-14.7Z"/><path class="cls-4" d="M418.26,355.57v20.42c-1.28-.12-2.1-.23-3.97-.23-9.33,0-18.32,2.8-18.32,17.39v27.77h-19.84v-64.18h19.84v9.92c3.97-7.82,10.5-11.43,18.67-11.43,1.52,0,2.68,.12,3.62,.35Z"/><path class="cls-4" d="M480.8,416.83c-3.62,2.57-12.02,5.6-20.07,5.6-12.37,0-24.5-7.23-24.5-26.37v-20.65h-10.97v-18.67h10.97v-13.19l19.84-4.32v17.5h21.59v18.67h-21.59v19.49c0,6.18,3.15,9.1,8.17,9.1,3.5,0,7.7-1.4,13.18-3.15l3.38,15.99Z"/></g></svg>