<?xml version="1.0" encoding="UTF-8"?><svg id="Layer_1" xmlns="http://www.w3.org/2000/svg" xmlns:xlink="http://www.w3.org/1999/xlink" viewBox="0 0 72.24 72.18"><defs><style>.cls-1{fill:url(#linear-gradient-2);}.cls-2{fill:#0de79b;}.cls-3{fill:#4e3dbf;}.cls-4{fill:#0fe4de;}.cls-5{fill:#0253a0;}.cls-6{fill:#4371ce;}.cls-7{fill:url(#linear-gradient);}.cls-8{fill:#2b80c6;}</style><linearGradient id="linear-gradient" x1="15.99" y1="64.16" x2="52.9" y2="14.32" gradientUnits="userSpaceOnUse"><stop offset="0" stop-color="#6649df"/><stop offset=".12" stop-color="#5f52d9"/><stop offset=".33" stop-color="#4e6ccc"/><stop offset=".59" stop-color="#3395b5"/><stop offset=".9" stop-color="#0dce96"/><stop offset="1" stop-color="#00e38c"/></linearGradient><linearGradient id="linear-gradient-2" x1="20.68" y1="30.12" x2="64.58" y2="67.37" gradientUnits="userSpaceOnUse"><stop offset="0" stop-color="#6649df"/><stop offset=".13" stop-color="#5f52de"/><stop offset=".33" stop-color="#4e6cdd"/><stop offset=".6" stop-color="#3295da"/><stop offset=".91" stop-color="#0bced7"/><stop offset="1" stop-color="#00e0d7"/></linearGradient></defs><path class="cls-7" d="M56.41,4.91c-1.98-2.47-5.26-3.73-8.55-2.96-1.89,.44-3.48,1.48-4.62,2.87-1.09,1.21-1.83,2.84-1.95,4.89-1.06,8.67-3.95,17.15-8.26,24.76-4.55,7.98-11.11,14.87-19.15,19.37-1.38,.76-2.41,1.67-3.14,2.67-1.6,1.97-2.31,4.62-1.69,7.28,1.06,4.56,5.62,7.4,10.19,6.34,.79-.18,1.53-.47,2.2-.85,.77-.35,1.54-.83,2.3-1.46,20.03-11.92,32.29-34.59,34.56-57.44,.04-2.3-.7-4.13-1.9-5.47Z"/><path class="cls-1" d="M5.08,22.89c-2.47,1.98-3.73,5.26-2.96,8.55,.44,1.89,1.48,3.48,2.87,4.62,1.21,1.09,2.84,1.83,4.89,1.95,8.67,1.06,17.15,3.95,24.76,8.26,7.98,4.55,14.87,11.11,19.37,19.15,.76,1.38,1.67,2.41,2.67,3.14,1.97,1.6,4.62,2.31,7.28,1.69,4.56-1.06,7.4-5.62,6.34-10.19-.18-.79-.47-1.53-.85-2.2-.35-.77-.83-1.54-1.46-2.3C56.07,35.52,33.4,23.26,10.55,20.99c-2.3-.04-4.13,.7-5.47,1.9Z"/><circle class="cls-3" cx="10.19" cy="29.47" r="8.48"/><circle class="cls-3" cx="17.35" cy="61.39" r="8.48"/><circle class="cls-2" cx="49.79" cy="10.26" r="8.54"/><circle class="cls-4" cx="62.05" cy="61.94" r="8.48"/><circle class="cls-8" cx="39.79" cy="39.41" r="8.48"/><g><path class="cls-6" d="M36.26,27.94c-.89,2.05-1.88,4.05-2.96,6,1.14-1.35,2.7-2.36,4.56-2.79,4.56-1.06,9.11,1.78,10.18,6.33,1.06,4.56-1.78,9.11-6.33,10.18-4.56,1.06-9.11-1.78-10.18-6.33-.4-1.7-.25-3.41,.33-4.93-1.37,2.19-2.9,4.29-4.58,6.27,2.52,1.05,4.97,2.26,7.34,3.6,2.63,1.5,5.14,3.23,7.49,5.14,3.51-4.51,6.5-9.45,8.93-14.65-4.56-3.48-9.54-6.43-14.78-8.82Z"/><path class="cls-5" d="M33.3,33.94c-.62,.73-1.11,1.56-1.45,2.46,.4-.64,.79-1.28,1.16-1.94,.1-.17,.19-.35,.29-.52Z"/></g></svg>