<?xml version="1.0" encoding="UTF-8"?><svg id="Layer_1" xmlns="http://www.w3.org/2000/svg" viewBox="0 0 311.77 66.87"><defs><style>.cls-1{fill:#28065f;}</style></defs><path class="cls-1" d="M34.14,63.19l-7.09-11.27-6.57,11.27H5.25l14.26-21.2L5.99,22.12h15.08l6.42,10.38,5.9-10.38h15.23l-13.59,20.23,14.19,20.83h-15.08Z"/><path class="cls-1" d="M68.49,9.95c0,4.26-3.21,7.32-7.69,7.32s-7.69-3.06-7.69-7.32,3.36-7.24,7.69-7.24,7.69,3.06,7.69,7.24Zm-14.04,12.17h12.69V63.19h-12.69V22.12Z"/><path class="cls-1" d="M139.27,37.5v25.68h-12.69v-22.85c0-4.48-1.34-7.09-6.12-7.09s-7.17,2.46-7.17,8.14v21.8h-12.69v-22.85c0-4.48-1.34-7.09-6.12-7.09s-7.17,2.46-7.17,8.14v21.8h-12.69V22.12h12.69v4.63c2.99-3.66,6.79-5.6,11.65-5.6,5.6,0,9.93,2.61,12.32,7.17,3.13-4.55,7.91-7.17,13.59-7.17,8.81,0,14.41,6.35,14.41,16.35Z"/><path class="cls-1" d="M173.92,63.19l-14.48-16.87v16.87h-12.69V5.7h12.69V38.47l13.51-16.35h16.05l-17.54,19.56,18.52,21.5h-16.05Z"/><path class="cls-1" d="M232.08,22.12l-.07,41.06h-12.69v-4.4c-2.61,3.21-6.35,5.38-11.57,5.38-10.45,0-18.52-8.81-18.52-21.5s8.21-21.5,18.44-21.5c5.23,0,9.11,2.24,11.72,5.6v-4.63h12.69Zm-12.69,20.53c0-5.67-3.73-9.41-8.66-9.41s-8.66,3.73-8.66,9.41,3.81,9.41,8.66,9.41,8.66-3.66,8.66-9.41Z"/><path class="cls-1" d="M266.5,21.38v13.07c-.82-.08-1.34-.15-2.54-.15-5.97,0-11.72,1.79-11.72,11.12v17.77h-12.69V22.12h12.69v6.35c2.54-5,6.72-7.32,11.95-7.32,.97,0,1.72,.08,2.31,.22Z"/><path class="cls-1" d="M306.52,60.57c-2.31,1.64-7.69,3.58-12.84,3.58-7.91,0-15.68-4.63-15.68-16.87v-13.21h-7.02v-11.95h7.02V13.69l12.69-2.76v11.2h13.81v11.95h-13.81v12.47c0,3.96,2.02,5.82,5.23,5.82,2.24,0,4.93-.9,8.44-2.02l2.17,10.23Z"/></svg>